<?xml version="1.0" encoding="UTF-8" standalone="no" ?>
<!DOCTYPE svg PUBLIC "-//W3C//DTD SVG 1.1//EN" "http://www.w3.org/Graphics/SVG/1.1/DTD/svg11.dtd">
<svg xmlns="http://www.w3.org/2000/svg" xmlns:xlink="http://www.w3.org/1999/xlink" version="1.1" width="1280" height="1024" viewBox="0 0 1280 1024" xml:space="preserve">
<desc>Created with Fabric.js 4.4.0</desc>
<defs>
</defs>
<g transform="matrix(1 0 0 1 640 512)" id="background-logo"  >
<rect style="stroke: none; stroke-width: 0; stroke-dasharray: none; stroke-linecap: butt; stroke-dashoffset: 0; stroke-linejoin: miter; stroke-miterlimit: 4; fill: rgb(255,255,255); fill-opacity: 0; fill-rule: nonzero; opacity: 1;"  paint-order="stroke"  x="-640" y="-512" rx="0" ry="0" width="1280" height="1024" />
</g>
<g transform="matrix(1.9211538461538462 0 0 1.9211538461538462 640 377.40800190351734)" id="logo-logo"  >
<g style=""  paint-order="stroke"   >
		<g transform="matrix(1.2038907869185405 0 0 -1.2038907869185405 0 0)"  >
<linearGradient id="SVGID_1_195479" gradientUnits="userSpaceOnUse" gradientTransform="matrix(1 0 0 1 87.18900000000002 49.40384078995589)"  x1="0" y1="0" x2="0" y2="161">
<stop offset="0%" style="stop-color:rgb(23,234,217);stop-opacity: 1"/>
<stop offset="100%" style="stop-color:rgb(96,120,234);stop-opacity: 1"/>
</linearGradient>
<path style="stroke: none; stroke-width: 1; stroke-dasharray: none; stroke-linecap: butt; stroke-dashoffset: 0; stroke-linejoin: miter; stroke-miterlimit: 4; fill: url(#SVGID_1_195479); fill-rule: nonzero; opacity: 1;"  paint-order="stroke"  transform=" translate(-162.5, -129.99992039497795)" d="M 161.239 210.258 L 124.845 189.244 L 88.45 168.236 C 87.669 167.785 87.18900000000001 166.953 87.18900000000001 166.051 L 87.18900000000001 166.051 L 87.18900000000001 124.02399999999999 L 87.18900000000001 81.999 C 87.18900000000001 81.098 87.66900000000001 80.26599999999999 88.44900000000001 79.815 L 88.44900000000001 79.815 L 124.84500000000001 58.801 L 140.52700000000002 49.745000000000005 C 142.20800000000003 48.775000000000006 144.311 49.989000000000004 144.311 51.93000000000001 L 144.311 51.93000000000001 L 144.311 87.95600000000002 C 144.311 88.85700000000001 143.83 89.68900000000002 143.05 90.14000000000001 L 143.05 90.14000000000001 L 124.69000000000001 100.73800000000001 C 123.909 101.18900000000001 123.42800000000001 102.02100000000002 123.42800000000001 102.92300000000002 L 123.42800000000001 102.92300000000002 L 123.42800000000001 124.02400000000002 L 123.42800000000001 145.12400000000002 C 123.42800000000001 146.02500000000003 123.909 146.85800000000003 124.69000000000001 147.30800000000002 L 124.69000000000001 147.30800000000002 L 140.52700000000002 156.45100000000002 C 142.20800000000003 157.42300000000003 144.311 156.20900000000003 144.311 154.26700000000002 L 144.311 154.26700000000002 L 144.311 122.98000000000002 C 144.311 122.09700000000002 144.77200000000002 121.27900000000002 145.52700000000002 120.82100000000001 L 145.52700000000002 120.82100000000001 L 161.187 111.34900000000002 C 161.989 110.86500000000002 162.994 110.86300000000001 163.79700000000003 111.34900000000002 L 163.79700000000003 111.34900000000002 L 179.47100000000003 120.82100000000001 C 180.22700000000003 121.27900000000001 180.68800000000005 122.09700000000001 180.68800000000005 122.98000000000002 L 180.68800000000005 122.98000000000002 L 180.68800000000005 154.26500000000001 C 180.68800000000005 156.20700000000002 182.79000000000005 157.42000000000002 184.47200000000004 156.449 L 184.47200000000004 156.449 L 200.30700000000004 147.30800000000002 C 201.08700000000005 146.85800000000003 201.56800000000004 146.02500000000003 201.56800000000004 145.12400000000002 L 201.56800000000004 145.12400000000002 L 201.56800000000004 124.02400000000003 L 201.56800000000004 102.92300000000003 C 201.56800000000004 102.02100000000003 201.08700000000005 101.18900000000004 200.30700000000004 100.73800000000003 L 200.30700000000004 100.73800000000003 L 181.95 90.142 C 181.17 89.692 180.688 88.86 180.688 87.959 L 180.688 87.959 L 180.688 51.932 C 180.688 49.99 182.79 48.777 184.47199999999998 49.748000000000005 L 184.47199999999998 49.748000000000005 L 200.15399999999997 58.801 L 236.54999999999995 79.813 C 237.32999999999996 80.263 237.81099999999995 81.095 237.81099999999995 81.99600000000001 L 237.81099999999995 81.99600000000001 L 237.81099999999995 124.024 L 237.81099999999995 166.049 C 237.81099999999995 166.95000000000002 237.32999999999996 167.78300000000002 236.54999999999995 168.232 L 236.54999999999995 168.232 L 200.15399999999994 189.244 L 163.75999999999993 210.258 C 163.37099999999992 210.483 162.93499999999995 210.596 162.49999999999994 210.596 L 162.49999999999994 210.596 C 162.06399999999994 210.596 161.62899999999993 210.483 161.23899999999995 210.258" stroke-linecap="round" />
</g>
</g>
</g>
<g transform="matrix(1.9211538461538462 0 0 1.9211538461538462 639.7409345866937 669.1873184632545)" id="text-logo"  >
<g style=""  paint-order="stroke"   >
		<g transform="matrix(1 0 0 1 0 0)" id="text-logo-path-0"  >
<path style="stroke: rgb(20,72,132); stroke-width: 1; stroke-dasharray: none; stroke-linecap: butt; stroke-dashoffset: 0; stroke-linejoin: miter; stroke-miterlimit: 4; fill: rgb(46,197,222); fill-rule: nonzero; opacity: 1;"  paint-order="stroke"  transform=" translate(-283.4236458329164, 26.25)" d="M 49.57 -4.27 L 28.72 -50.55 C 28.2 -51.75 27.07 -52.5 25.88 -52.5 C 24.68 -52.5 23.55 -51.75 23.02 -50.55 L 1.72 -4.27 C 0.97 -2.77 1.72 -0.9 3.3 -0.3 C 4.8 0.45 6.6 -0.3 7.35 -1.95 L 14.1 -16.13 L 37.35 -16.13 L 43.95 -1.95 C 44.48 -0.75 45.6 0 46.8 0 C 47.17 0 47.63 -0.15 48 -0.3 C 49.57 -0.9 50.25 -2.7 49.57 -4.27 Z M 16.8 -22.27 L 25.88 -41.63 L 34.73 -22.27 Z M 113.25 -15 C 111.9 -16.05 109.95 -15.82 108.9 -14.47 C 104.7 -9.07 98.7 -6.15 91.88 -6.15 C 79.72 -6.15 70.28 -14.1 70.28 -26.25 C 70.28 -38.4 79.72 -46.35 91.88 -46.35 C 97.72 -46.35 103.05 -44.17 107.17 -40.05 C 108.3 -38.85 110.25 -38.85 111.45 -39.98 C 112.72 -41.17 112.72 -43.2 111.45 -44.32 C 106.2 -49.65 99.3 -52.5 91.88 -52.5 C 76.58 -52.5 64.13 -41.55 64.13 -26.25 C 64.13 -10.95 76.58 0 91.88 0 C 100.5 0 108.45 -3.9 113.78 -10.72 C 114.82 -12 114.6 -13.95 113.25 -15 Z M 171.75 -5.25 L 149.17 -26.25 L 171.75 -47.25 C 173.02 -48.38 172.95 -50.4 171.75 -51.6 C 170.55 -52.8 168.6 -52.8 167.4 -51.6 L 140.92 -26.55 L 140.92 -49.42 C 140.92 -51.15 139.5 -52.5 137.85 -52.5 C 136.13 -52.5 134.78 -51.15 134.78 -49.42 L 134.78 -3.07 C 134.78 -1.35 136.13 0 137.85 0 C 139.5 0 140.92 -1.35 140.92 -3.07 L 140.92 -17.93 L 144.9 -21.9 L 167.4 -0.9 C 168 -0.3 168.82 0 169.57 0 C 170.32 0 171.22 -0.3 171.75 -0.9 C 172.95 -2.1 173.02 -4.13 171.75 -5.25 Z M 280.95 -52.35 C 279.6 -52.73 278.25 -52.2 277.5 -51 L 255.45 -14.7 L 233.4 -51 C 232.65 -52.2 231.3 -52.73 229.95 -52.35 C 228.6 -52.05 227.7 -50.85 227.7 -49.42 L 227.7 -3.07 C 227.7 -1.35 229.05 0 230.77 0 C 232.42 0 233.85 -1.35 233.85 -3.07 L 233.85 -38.32 L 252.82 -7.05 C 253.35 -6.15 254.4 -5.55 255.45 -5.55 C 256.5 -5.55 257.55 -6.15 258.07 -7.05 L 277.05 -38.32 L 277.05 -3.07 C 277.05 -1.35 278.47 0 280.13 0 C 281.85 0 283.2 -1.35 283.2 -3.07 L 283.2 -49.42 C 283.2 -50.85 282.3 -52.05 280.95 -52.35 Z M 332.32 0 C 346.8 0 358.57 -11.78 358.57 -26.25 C 358.57 -40.73 346.8 -52.5 332.32 -52.5 C 317.85 -52.5 306.07 -40.73 306.07 -26.25 C 306.07 -11.78 317.85 0 332.32 0 Z M 312.22 -26.25 C 312.22 -37.57 321 -46.35 332.32 -46.35 C 343.65 -46.35 352.43 -37.57 352.43 -26.25 C 352.43 -14.92 343.65 -6.15 332.32 -6.15 C 321 -6.15 312.22 -14.92 312.22 -26.25 Z M 314.18 -25.57 C 315 -16.27 322.8 -9 332.32 -9 C 341.85 -9 349.65 -16.27 350.47 -25.57 C 350.55 -26.47 349.8 -27.22 348.9 -27.22 C 348 -27.22 347.4 -26.63 347.32 -25.88 C 346.72 -17.93 340.35 -12.15 332.32 -12.15 C 324.3 -12.15 317.93 -17.93 317.32 -25.88 C 317.25 -26.63 316.65 -27.22 315.75 -27.22 C 314.85 -27.22 314.1 -26.47 314.18 -25.57 Z M 322.65 -27.6 C 322.65 -26.7 323.4 -25.95 324.3 -25.95 C 325.2 -25.95 326.02 -26.7 326.02 -27.6 L 326.02 -39 C 326.02 -39.9 325.2 -40.65 324.3 -40.65 C 323.4 -40.65 322.65 -39.9 322.65 -39 Z M 337.65 -27.6 C 337.65 -26.7 338.4 -25.95 339.3 -25.95 C 340.2 -25.95 341.02 -26.7 341.02 -27.6 L 341.02 -39 C 341.02 -39.9 340.2 -40.65 339.3 -40.65 C 338.4 -40.65 337.65 -39.9 337.65 -39 Z M 411.3 -30.22 C 414 -32.7 415.8 -35.63 415.8 -39.6 C 415.8 -45.6 409.65 -52.5 402.15 -52.5 L 381.45 -52.5 L 381.45 0 L 402.15 0 C 411.6 0 419.32 -8.47 419.32 -16.43 C 419.32 -22.57 416.1 -27.15 411.3 -30.22 Z M 387.6 -6.15 L 387.6 -26.7 L 402.15 -26.7 C 408.45 -26.7 413.17 -22.72 413.17 -16.43 C 413.17 -11.63 408.45 -6.15 402.15 -6.15 Z M 387.6 -32.85 L 387.6 -46.35 L 402.15 -46.35 C 406.5 -46.35 409.65 -42.45 409.65 -39.6 C 409.65 -35.25 406.5 -32.85 402.15 -32.85 Z M 443.92 -52.5 C 442.2 -52.5 440.85 -51.15 440.85 -49.42 L 440.85 -3.07 C 440.85 -1.35 442.2 0 443.92 0 C 445.57 0 447 -1.35 447 -3.07 L 447 -49.42 C 447 -51.15 445.57 -52.5 443.92 -52.5 Z M 505.72 -6.15 L 477.07 -6.15 L 477.07 -49.42 C 477.07 -51.15 475.65 -52.5 474 -52.5 C 472.27 -52.5 470.92 -51.15 470.92 -49.42 L 470.92 -3.07 C 470.92 -1.35 472.27 0 474 0 L 505.72 0 C 507.45 0 508.8 -1.35 508.8 -3.07 C 508.8 -4.72 507.45 -6.15 505.72 -6.15 Z M 562.35 -6.15 L 533.7 -6.15 L 533.7 -23.18 L 551.77 -23.18 C 553.5 -23.18 554.85 -24.52 554.85 -26.25 C 554.85 -27.97 553.5 -29.32 551.77 -29.32 L 533.7 -29.32 L 533.7 -46.35 L 562.35 -46.35 C 564.08 -46.35 565.42 -47.77 565.42 -49.42 C 565.42 -51.15 564.08 -52.5 562.35 -52.5 L 527.55 -52.5 L 527.55 0 L 562.35 0 C 564.08 0 565.42 -1.35 565.42 -3.07 C 565.42 -4.72 564.08 -6.15 562.35 -6.15 Z" stroke-linecap="round" />
</g>
</g>
</g>
<g transform="matrix(-0.17076814344497393 -1.9135491479907365 1.9135491479907367 -0.17076814344497393 248.69836262230888 554.8218300827762)" id="tagline-5b150119-d99b-4ec0-b357-5120a857eb34-logo-0"  >
<g style=""  paint-order="stroke"   >
		<g transform="matrix(1 0 0 1 0 0)" id="tagline-5b150119-d99b-4ec0-b357-5120a857eb34-logo-0-path-0"  >
<linearGradient id="SVGID_195480" gradientUnits="userSpaceOnUse" gradientTransform="matrix(1 0 0 1 4.3999999999999995 -30.8)"  x1="0" y1="0" x2="0" y2="50">
<stop offset="0%" style="stop-color:rgb(91,36,122);stop-opacity: 1"/>
<stop offset="100%" style="stop-color:rgb(27,206,223);stop-opacity: 1"/>
</linearGradient>
<path style="stroke: rgb(20,72,132); stroke-width: 2; stroke-dasharray: none; stroke-linecap: butt; stroke-dashoffset: 0; stroke-linejoin: miter; stroke-miterlimit: 4; fill: url(#SVGID_195480); fill-rule: nonzero; opacity: 1;"  paint-order="stroke"  transform=" translate(-11.879999999999999, 15.4)" d="M 4.4 0 L 7.48 0 L 7.48 -11.44 L 10.56 -11.44 L 16.06 0 L 19.36 0 L 13.73 -11.79 C 16.28 -12.45 18.04 -14.26 18.04 -18.48 L 18.04 -23.76 C 18.04 -29.66 14.74 -30.8 10.56 -30.8 L 4.4 -30.8 Z M 7.48 -14.08 L 7.48 -28.16 L 10.56 -28.16 C 13.24 -28.16 14.96 -27.32 14.96 -23.32 L 14.96 -18.92 C 14.96 -14.92 13.24 -14.08 10.56 -14.08 Z" stroke-linecap="round" />
</g>
</g>
</g>
<g transform="matrix(0.2170987815522075 -1.9088478775534372 1.9088478775534374 0.21709878155220752 250.12354227484968 475.97007464088085)" id="tagline-5b150119-d99b-4ec0-b357-5120a857eb34-logo-1"  >
<g style=""  paint-order="stroke"   >
		<g transform="matrix(1 0 0 1 0 0)" id="tagline-5b150119-d99b-4ec0-b357-5120a857eb34-logo-1-path-0"  >
<linearGradient id="SVGID_195481" gradientUnits="userSpaceOnUse" gradientTransform="matrix(1 0 0 1 4.3999999999999995 -30.8)"  x1="0" y1="0" x2="0" y2="50">
<stop offset="0%" style="stop-color:rgb(91,36,122);stop-opacity: 1"/>
<stop offset="100%" style="stop-color:rgb(27,206,223);stop-opacity: 1"/>
</linearGradient>
<path style="stroke: rgb(20,72,132); stroke-width: 2; stroke-dasharray: none; stroke-linecap: butt; stroke-dashoffset: 0; stroke-linejoin: miter; stroke-miterlimit: 4; fill: url(#SVGID_195481); fill-rule: nonzero; opacity: 1;"  paint-order="stroke"  transform=" translate(-11, 15.4)" d="M 4.4 -30.8 L 4.4 0 L 17.6 0 L 17.6 -2.64 L 7.48 -2.64 L 7.48 -14.08 L 14.96 -14.08 L 14.96 -16.72 L 7.48 -16.72 L 7.48 -28.16 L 17.16 -28.16 L 17.16 -30.8 Z" stroke-linecap="round" />
</g>
</g>
</g>
<g transform="matrix(0.5915978652341946 -1.827797599966161 1.8277975999661613 0.5915978652341947 266.8406784986378 400.31711170942697)" id="tagline-5b150119-d99b-4ec0-b357-5120a857eb34-logo-2"  >
<g style=""  paint-order="stroke"   >
		<g transform="matrix(0.9999999999999999 0 0 1 0 0)" id="tagline-5b150119-d99b-4ec0-b357-5120a857eb34-logo-2-path-0"  >
<linearGradient id="SVGID_195482" gradientUnits="userSpaceOnUse" gradientTransform="matrix(1 0 0 1 3.960000000000001 -30.8)"  x1="0" y1="0" x2="0" y2="50">
<stop offset="0%" style="stop-color:rgb(91,36,122);stop-opacity: 1"/>
<stop offset="100%" style="stop-color:rgb(27,206,223);stop-opacity: 1"/>
</linearGradient>
<path style="stroke: rgb(20,72,132); stroke-width: 2; stroke-dasharray: none; stroke-linecap: butt; stroke-dashoffset: 0; stroke-linejoin: miter; stroke-miterlimit: 4; fill: url(#SVGID_195482); fill-rule: nonzero; opacity: 1;"  paint-order="stroke"  transform=" translate(-10.780000000000001, 15.4)" d="M 3.96 0 L 7.04 0 L 7.04 -11 L 10.12 -11 C 14.3 -11 17.6 -12.23 17.6 -18.04 L 17.6 -23.76 C 17.6 -29.66 14.3 -30.8 10.12 -30.8 L 3.96 -30.8 Z M 7.04 -13.64 L 7.04 -28.16 L 10.12 -28.16 C 12.8 -28.16 14.52 -27.32 14.52 -23.32 L 14.52 -18.48 C 14.52 -14.48 12.8 -13.64 10.12 -13.64 Z" stroke-linecap="round" />
</g>
</g>
</g>
<g transform="matrix(0.9404933346644189 -1.6752027901252784 1.6752027901252784 0.9404933346644189 297.6180940900135 330.2453989371268)" id="tagline-5b150119-d99b-4ec0-b357-5120a857eb34-logo-3"  >
<g style=""  paint-order="stroke"   >
		<g transform="matrix(0.9999999999999999 0 0 1 0 0)" id="tagline-5b150119-d99b-4ec0-b357-5120a857eb34-logo-3-path-0"  >
<linearGradient id="SVGID_195483" gradientUnits="userSpaceOnUse" gradientTransform="matrix(1 0 0 1 1.7599999999999998 -30.8)"  x1="0" y1="0" x2="0" y2="50">
<stop offset="0%" style="stop-color:rgb(91,36,122);stop-opacity: 1"/>
<stop offset="100%" style="stop-color:rgb(27,206,223);stop-opacity: 1"/>
</linearGradient>
<path style="stroke: rgb(20,72,132); stroke-width: 2; stroke-dasharray: none; stroke-linecap: butt; stroke-dashoffset: 0; stroke-linejoin: miter; stroke-miterlimit: 4; fill: url(#SVGID_195483); fill-rule: nonzero; opacity: 1;"  paint-order="stroke"  transform=" translate(-10.54, 15.4)" d="M 1.76 0 L 4.84 0 L 6.6 -8.36 L 14.48 -8.36 L 16.24 0 L 19.32 0 L 12.85 -30.8 L 8.23 -30.8 Z M 7.17 -11 L 10.56 -27.15 L 13.95 -11 Z" stroke-linecap="round" />
</g>
</g>
</g>
<g transform="matrix(1.2306880543660847 -1.4752081254630947 1.4752081254630949 1.230688054366085 338.51568801072943 270.89554332941714)" id="tagline-5b150119-d99b-4ec0-b357-5120a857eb34-logo-4"  >
<g style=""  paint-order="stroke"   >
		<g transform="matrix(1 0 0 1.0000000000000002 0 0)" id="tagline-5b150119-d99b-4ec0-b357-5120a857eb34-logo-4-path-0"  >
<linearGradient id="SVGID_195484" gradientUnits="userSpaceOnUse" gradientTransform="matrix(1 0 0 1 3.08 -30.8)"  x1="0" y1="0" x2="0" y2="50">
<stop offset="0%" style="stop-color:rgb(91,36,122);stop-opacity: 1"/>
<stop offset="100%" style="stop-color:rgb(27,206,223);stop-opacity: 1"/>
</linearGradient>
<path style="stroke: rgb(20,72,132); stroke-width: 2; stroke-dasharray: none; stroke-linecap: butt; stroke-dashoffset: 0; stroke-linejoin: miter; stroke-miterlimit: 4; fill: url(#SVGID_195484); fill-rule: nonzero; opacity: 1;"  paint-order="stroke"  transform=" translate(-6.6, 15.4)" d="M 10.12 -30.8 L 3.08 -30.8 L 3.08 -28.16 L 5.06 -28.16 L 5.06 -2.64 L 3.08 -2.64 L 3.08 0 L 10.12 0 L 10.12 -2.64 L 8.14 -2.64 L 8.14 -28.16 L 10.12 -28.16 Z" stroke-linecap="round" />
</g>
</g>
</g>
<g transform="matrix(1.4794653390921837 -1.225566975328793 1.2255669753287932 1.479465339092184 391.4962664521461 218.43197288234325)" id="tagline-5b150119-d99b-4ec0-b357-5120a857eb34-logo-5"  >
<g style=""  paint-order="stroke"   >
		<g transform="matrix(1 0 0 1 0 0)" id="tagline-5b150119-d99b-4ec0-b357-5120a857eb34-logo-5-path-0"  >
<linearGradient id="SVGID_195485" gradientUnits="userSpaceOnUse" gradientTransform="matrix(1 0 0 1 4.3999999999999995 -30.8)"  x1="0" y1="0" x2="0" y2="50">
<stop offset="0%" style="stop-color:rgb(91,36,122);stop-opacity: 1"/>
<stop offset="100%" style="stop-color:rgb(27,206,223);stop-opacity: 1"/>
</linearGradient>
<path style="stroke: rgb(20,72,132); stroke-width: 2; stroke-dasharray: none; stroke-linecap: butt; stroke-dashoffset: 0; stroke-linejoin: miter; stroke-miterlimit: 4; fill: url(#SVGID_195485); fill-rule: nonzero; opacity: 1;"  paint-order="stroke"  transform=" translate(-11.879999999999999, 15.4)" d="M 4.4 0 L 7.48 0 L 7.48 -11.44 L 10.56 -11.44 L 16.06 0 L 19.36 0 L 13.73 -11.79 C 16.28 -12.45 18.04 -14.26 18.04 -18.48 L 18.04 -23.76 C 18.04 -29.66 14.74 -30.8 10.56 -30.8 L 4.4 -30.8 Z M 7.48 -14.08 L 7.48 -28.16 L 10.56 -28.16 C 13.24 -28.16 14.96 -27.32 14.96 -23.32 L 14.96 -18.92 C 14.96 -14.92 13.24 -14.08 10.56 -14.08 Z" stroke-linecap="round" />
</g>
</g>
</g>
<g transform="matrix(1.6667698202029948 -0.9553588158656375 0.9553588158656376 1.666769820202995 466.8154244836135 203.24209483742004)" id="tagline-5b150119-d99b-4ec0-b357-5120a857eb34-logo-6"  >
<g style=""  paint-order="stroke"   >
		<g transform="matrix(1 0 0 1 0 0)" id="tagline-5b150119-d99b-4ec0-b357-5120a857eb34-logo-6-path-0"  >
<linearGradient id="SVGID_195486" gradientUnits="userSpaceOnUse" gradientTransform="matrix(1 0 0 1 0 0)"  x1="0" y1="0" x2="0" y2="50">
<stop offset="0%" style="stop-color:rgb(91,36,122);stop-opacity: 1"/>
<stop offset="100%" style="stop-color:rgb(27,206,223);stop-opacity: 1"/>
</linearGradient>
<path style="stroke: rgb(20,72,132); stroke-width: 2; stroke-dasharray: none; stroke-linecap: butt; stroke-dashoffset: 0; stroke-linejoin: miter; stroke-miterlimit: 4; fill: url(#SVGID_195486); fill-rule: nonzero; opacity: 1;"  paint-order="stroke"  transform=" translate(0, 0)" d="" stroke-linecap="round" />
</g>
</g>
</g>
<g transform="matrix(1.7978352123720793 -0.6772153643758809 0.677215364375881 1.7978352123720795 501.6227584135354 154.97538857020078)" id="tagline-5b150119-d99b-4ec0-b357-5120a857eb34-logo-7"  >
<g style=""  paint-order="stroke"   >
		<g transform="matrix(0.9999999999999999 0 0 1 0 0)" id="tagline-5b150119-d99b-4ec0-b357-5120a857eb34-logo-7-path-0"  >
<linearGradient id="SVGID_195487" gradientUnits="userSpaceOnUse" gradientTransform="matrix(1 0 0 1 1.3200000000000003 -30.8)"  x1="0" y1="0" x2="0" y2="50">
<stop offset="0%" style="stop-color:rgb(91,36,122);stop-opacity: 1"/>
<stop offset="100%" style="stop-color:rgb(27,206,223);stop-opacity: 1"/>
</linearGradient>
<path style="stroke: rgb(20,72,132); stroke-width: 2; stroke-dasharray: none; stroke-linecap: butt; stroke-dashoffset: 0; stroke-linejoin: miter; stroke-miterlimit: 4; fill: url(#SVGID_195487); fill-rule: nonzero; opacity: 1;"  paint-order="stroke"  transform=" translate(-8.58, 15.4)" d="M 15.84 -30.8 L 1.32 -30.8 L 1.32 -28.16 L 7.04 -28.16 L 7.04 0 L 10.12 0 L 10.12 -28.16 L 15.84 -28.16 Z" stroke-linecap="round" />
</g>
</g>
</g>
<g transform="matrix(1.8937451540478665 -0.3233595400045266 0.32335954000452666 1.8937451540478667 576.0313127586999 135.01791534362349)" id="tagline-5b150119-d99b-4ec0-b357-5120a857eb34-logo-8"  >
<g style=""  paint-order="stroke"   >
		<g transform="matrix(1 0 0 1.0000000000000002 0 0)" id="tagline-5b150119-d99b-4ec0-b357-5120a857eb34-logo-8-path-0"  >
<linearGradient id="SVGID_195488" gradientUnits="userSpaceOnUse" gradientTransform="matrix(1 0 0 1 4.3999999999999995 -30.8)"  x1="0" y1="0" x2="0" y2="50">
<stop offset="0%" style="stop-color:rgb(91,36,122);stop-opacity: 1"/>
<stop offset="100%" style="stop-color:rgb(27,206,223);stop-opacity: 1"/>
</linearGradient>
<path style="stroke: rgb(20,72,132); stroke-width: 2; stroke-dasharray: none; stroke-linecap: butt; stroke-dashoffset: 0; stroke-linejoin: miter; stroke-miterlimit: 4; fill: url(#SVGID_195488); fill-rule: nonzero; opacity: 1;"  paint-order="stroke"  transform=" translate(-11, 15.4)" d="M 4.4 -30.8 L 4.4 0 L 17.6 0 L 17.6 -2.64 L 7.48 -2.64 L 7.48 -14.08 L 14.96 -14.08 L 14.96 -16.72 L 7.48 -16.72 L 7.48 -28.16 L 17.16 -28.16 L 17.16 -30.8 Z" stroke-linecap="round" />
</g>
</g>
</g>
<g transform="matrix(1.919936285541527 0.0683868412249159 -0.0683868412249159 1.919936285541527 654.443839542696 130.0340498798776)" id="tagline-5b150119-d99b-4ec0-b357-5120a857eb34-logo-9"  >
<g style=""  paint-order="stroke"   >
		<g transform="matrix(1 0 0 1 0 0)" id="tagline-5b150119-d99b-4ec0-b357-5120a857eb34-logo-9-path-0"  >
<linearGradient id="SVGID_195489" gradientUnits="userSpaceOnUse" gradientTransform="matrix(1 0 0 1 3.7399999999999993 -31.24)"  x1="0" y1="0" x2="0" y2="50">
<stop offset="0%" style="stop-color:rgb(91,36,122);stop-opacity: 1"/>
<stop offset="100%" style="stop-color:rgb(27,206,223);stop-opacity: 1"/>
</linearGradient>
<path style="stroke: rgb(20,72,132); stroke-width: 2; stroke-dasharray: none; stroke-linecap: butt; stroke-dashoffset: 0; stroke-linejoin: miter; stroke-miterlimit: 4; fill: url(#SVGID_195489); fill-rule: nonzero; opacity: 1;"  paint-order="stroke"  transform=" translate(-11.219999999999999, 15.399999999999999)" d="M 15.62 -23.32 L 15.62 -18.92 L 18.7 -18.92 L 18.7 -24.2 C 18.7 -30.1 15.4 -31.24 11.22 -31.24 C 7.08 -31.24 3.74 -30.1 3.74 -24.2 L 3.74 -6.6 C 3.74 -0.7 7.08 0.44 11.22 0.44 C 15.4 0.44 18.7 -0.79 18.7 -6.6 L 18.7 -8.45 L 15.62 -8.45 L 15.62 -7.48 C 15.62 -3.48 13.9 -2.64 11.22 -2.64 C 8.54 -2.64 6.82 -3.48 6.82 -7.48 L 6.82 -23.32 C 6.82 -27.32 8.54 -28.16 11.22 -28.16 C 13.9 -28.16 15.62 -27.32 15.62 -23.32 Z" stroke-linecap="round" />
</g>
</g>
</g>
<g transform="matrix(1.8607361968398481 0.4780093161871383 -0.4780093161871383 1.8607361968398481 737.742634053057 142.1185091548358)" id="tagline-5b150119-d99b-4ec0-b357-5120a857eb34-logo-10"  >
<g style=""  paint-order="stroke"   >
		<g transform="matrix(1 0 0 1 0 0)" id="tagline-5b150119-d99b-4ec0-b357-5120a857eb34-logo-10-path-0"  >
<linearGradient id="SVGID_195490" gradientUnits="userSpaceOnUse" gradientTransform="matrix(1 0 0 1 4.3999999999999995 -30.8)"  x1="0" y1="0" x2="0" y2="50">
<stop offset="0%" style="stop-color:rgb(91,36,122);stop-opacity: 1"/>
<stop offset="100%" style="stop-color:rgb(27,206,223);stop-opacity: 1"/>
</linearGradient>
<path style="stroke: rgb(20,72,132); stroke-width: 2; stroke-dasharray: none; stroke-linecap: butt; stroke-dashoffset: 0; stroke-linejoin: miter; stroke-miterlimit: 4; fill: url(#SVGID_195490); fill-rule: nonzero; opacity: 1;"  paint-order="stroke"  transform=" translate(-11.879999999999999, 15.4)" d="M 4.4 -30.8 L 4.4 0 L 7.48 0 L 7.48 -14.52 L 16.28 -14.52 L 16.28 0 L 19.36 0 L 19.36 -30.8 L 16.28 -30.8 L 16.28 -17.16 L 7.48 -17.16 L 7.48 -30.8 Z" stroke-linecap="round" />
</g>
</g>
</g>
<g transform="matrix(1.7089821680763266 0.8776172570026494 -0.8776172570026494 1.7089821680763266 819.4411781176047 173.14538252474324)" id="tagline-5b150119-d99b-4ec0-b357-5120a857eb34-logo-11"  >
<g style=""  paint-order="stroke"   >
		<g transform="matrix(1 0 0 1 0 0)" id="tagline-5b150119-d99b-4ec0-b357-5120a857eb34-logo-11-path-0"  >
<linearGradient id="SVGID_195491" gradientUnits="userSpaceOnUse" gradientTransform="matrix(1 0 0 1 4.3999999999999995 -30.8)"  x1="0" y1="0" x2="0" y2="50">
<stop offset="0%" style="stop-color:rgb(91,36,122);stop-opacity: 1"/>
<stop offset="100%" style="stop-color:rgb(27,206,223);stop-opacity: 1"/>
</linearGradient>
<path style="stroke: rgb(20,72,132); stroke-width: 2; stroke-dasharray: none; stroke-linecap: butt; stroke-dashoffset: 0; stroke-linejoin: miter; stroke-miterlimit: 4; fill: url(#SVGID_195491); fill-rule: nonzero; opacity: 1;"  paint-order="stroke"  transform=" translate(-12.274999999999999, 15.4)" d="M 4.4 -30.8 L 4.4 0 L 7.48 0 L 7.48 -23.32 L 17.07 0 L 20.15 0 L 20.15 -30.8 L 17.07 -30.8 L 17.07 -7.48 L 7.48 -30.8 Z" stroke-linecap="round" />
</g>
</g>
</g>
<g transform="matrix(1.50857742135143 1.1895487650283134 -1.1895487650283134 1.50857742135143 883.1755542949967 214.09746465675596)" id="tagline-5b150119-d99b-4ec0-b357-5120a857eb34-logo-12"  >
<g style=""  paint-order="stroke"   >
		<g transform="matrix(1 0 0 1 0 0)" id="tagline-5b150119-d99b-4ec0-b357-5120a857eb34-logo-12-path-0"  >
<linearGradient id="SVGID_195492" gradientUnits="userSpaceOnUse" gradientTransform="matrix(1 0 0 1 3.08 -30.8)"  x1="0" y1="0" x2="0" y2="50">
<stop offset="0%" style="stop-color:rgb(91,36,122);stop-opacity: 1"/>
<stop offset="100%" style="stop-color:rgb(27,206,223);stop-opacity: 1"/>
</linearGradient>
<path style="stroke: rgb(20,72,132); stroke-width: 2; stroke-dasharray: none; stroke-linecap: butt; stroke-dashoffset: 0; stroke-linejoin: miter; stroke-miterlimit: 4; fill: url(#SVGID_195492); fill-rule: nonzero; opacity: 1;"  paint-order="stroke"  transform=" translate(-6.6, 15.4)" d="M 10.12 -30.8 L 3.08 -30.8 L 3.08 -28.16 L 5.06 -28.16 L 5.06 -2.64 L 3.08 -2.64 L 3.08 0 L 10.12 0 L 10.12 -2.64 L 8.14 -2.64 L 8.14 -28.16 L 10.12 -28.16 Z" stroke-linecap="round" />
</g>
</g>
</g>
<g transform="matrix(1.262313015357271 1.4482396044340695 -1.4482396044340695 1.262313015357271 936.331521172611 264.75223256553056)" id="tagline-5b150119-d99b-4ec0-b357-5120a857eb34-logo-13"  >
<g style=""  paint-order="stroke"   >
		<g transform="matrix(1 0 0 1 0 0)" id="tagline-5b150119-d99b-4ec0-b357-5120a857eb34-logo-13-path-0"  >
<linearGradient id="SVGID_195493" gradientUnits="userSpaceOnUse" gradientTransform="matrix(1 0 0 1 3.7399999999999993 -31.24)"  x1="0" y1="0" x2="0" y2="50">
<stop offset="0%" style="stop-color:rgb(91,36,122);stop-opacity: 1"/>
<stop offset="100%" style="stop-color:rgb(27,206,223);stop-opacity: 1"/>
</linearGradient>
<path style="stroke: rgb(20,72,132); stroke-width: 2; stroke-dasharray: none; stroke-linecap: butt; stroke-dashoffset: 0; stroke-linejoin: miter; stroke-miterlimit: 4; fill: url(#SVGID_195493); fill-rule: nonzero; opacity: 1;"  paint-order="stroke"  transform=" translate(-11.219999999999999, 15.399999999999999)" d="M 15.62 -23.32 L 15.62 -18.92 L 18.7 -18.92 L 18.7 -24.2 C 18.7 -30.1 15.4 -31.24 11.22 -31.24 C 7.08 -31.24 3.74 -30.1 3.74 -24.2 L 3.74 -6.6 C 3.74 -0.7 7.08 0.44 11.22 0.44 C 15.4 0.44 18.7 -0.79 18.7 -6.6 L 18.7 -8.45 L 15.62 -8.45 L 15.62 -7.48 C 15.62 -3.48 13.9 -2.64 11.22 -2.64 C 8.54 -2.64 6.82 -3.48 6.82 -7.48 L 6.82 -23.32 C 6.82 -27.32 8.54 -28.16 11.22 -28.16 C 13.9 -28.16 15.62 -27.32 15.62 -23.32 Z" stroke-linecap="round" />
</g>
</g>
</g>
<g transform="matrix(0.9353113872903053 1.678101519395296 -1.6781015193952962 0.9353113872903054 983.01452538685 331.23277044802103)" id="tagline-5b150119-d99b-4ec0-b357-5120a857eb34-logo-14"  >
<g style=""  paint-order="stroke"   >
		<g transform="matrix(1 0 0 1 0 0)" id="tagline-5b150119-d99b-4ec0-b357-5120a857eb34-logo-14-path-0"  >
<linearGradient id="SVGID_195494" gradientUnits="userSpaceOnUse" gradientTransform="matrix(1 0 0 1 1.7599999999999998 -30.8)"  x1="0" y1="0" x2="0" y2="50">
<stop offset="0%" style="stop-color:rgb(91,36,122);stop-opacity: 1"/>
<stop offset="100%" style="stop-color:rgb(27,206,223);stop-opacity: 1"/>
</linearGradient>
<path style="stroke: rgb(20,72,132); stroke-width: 2; stroke-dasharray: none; stroke-linecap: butt; stroke-dashoffset: 0; stroke-linejoin: miter; stroke-miterlimit: 4; fill: url(#SVGID_195494); fill-rule: nonzero; opacity: 1;"  paint-order="stroke"  transform=" translate(-10.54, 15.4)" d="M 1.76 0 L 4.84 0 L 6.6 -8.36 L 14.48 -8.36 L 16.24 0 L 19.32 0 L 12.85 -30.8 L 8.23 -30.8 Z M 7.17 -11 L 10.56 -27.15 L 13.95 -11 Z" stroke-linecap="round" />
</g>
</g>
</g>
<g transform="matrix(0.6130230788374645 1.8207237037519866 -1.8207237037519866 0.6130230788374645 1012.1855079519507 397.1451016164322)" id="tagline-5b150119-d99b-4ec0-b357-5120a857eb34-logo-15"  >
<g style=""  paint-order="stroke"   >
		<g transform="matrix(0.9999999999999999 0 0 1 0 0)" id="tagline-5b150119-d99b-4ec0-b357-5120a857eb34-logo-15-path-0"  >
<linearGradient id="SVGID_195495" gradientUnits="userSpaceOnUse" gradientTransform="matrix(1 0 0 1 3.08 -30.8)"  x1="0" y1="0" x2="0" y2="50">
<stop offset="0%" style="stop-color:rgb(91,36,122);stop-opacity: 1"/>
<stop offset="100%" style="stop-color:rgb(27,206,223);stop-opacity: 1"/>
</linearGradient>
<path style="stroke: rgb(20,72,132); stroke-width: 2; stroke-dasharray: none; stroke-linecap: butt; stroke-dashoffset: 0; stroke-linejoin: miter; stroke-miterlimit: 4; fill: url(#SVGID_195495); fill-rule: nonzero; opacity: 1;"  paint-order="stroke"  transform=" translate(-6.6, 15.4)" d="M 10.12 -30.8 L 3.08 -30.8 L 3.08 -28.16 L 5.06 -28.16 L 5.06 -2.64 L 3.08 -2.64 L 3.08 0 L 10.12 0 L 10.12 -2.64 L 8.14 -2.64 L 8.14 -28.16 L 10.12 -28.16 Z" stroke-linecap="round" />
</g>
</g>
</g>
<g transform="matrix(0.25186827441551213 1.9045719920587587 -1.9045719920587587 0.25186827441551213 1029.326452144971 470.98454115090624)" id="tagline-5b150119-d99b-4ec0-b357-5120a857eb34-logo-16"  >
<g style=""  paint-order="stroke"   >
		<g transform="matrix(1 0 0 1 0 0)" id="tagline-5b150119-d99b-4ec0-b357-5120a857eb34-logo-16-path-0"  >
<linearGradient id="SVGID_195496" gradientUnits="userSpaceOnUse" gradientTransform="matrix(1 0 0 1 4.3999999999999995 -30.8)"  x1="0" y1="0" x2="0" y2="50">
<stop offset="0%" style="stop-color:rgb(91,36,122);stop-opacity: 1"/>
<stop offset="100%" style="stop-color:rgb(27,206,223);stop-opacity: 1"/>
</linearGradient>
<path style="stroke: rgb(20,72,132); stroke-width: 2; stroke-dasharray: none; stroke-linecap: butt; stroke-dashoffset: 0; stroke-linejoin: miter; stroke-miterlimit: 4; fill: url(#SVGID_195496); fill-rule: nonzero; opacity: 1;"  paint-order="stroke"  transform=" translate(-12.274999999999999, 15.4)" d="M 4.4 -30.8 L 4.4 0 L 7.48 0 L 7.48 -23.32 L 17.07 0 L 20.15 0 L 20.15 -30.8 L 17.07 -30.8 L 17.07 -7.48 L 7.48 -30.8 Z" stroke-linecap="round" />
</g>
</g>
</g>
<g transform="matrix(-0.16603633932588505 1.9139655259734893 -1.9139655259734893 -0.16603633932588505 1031.244184776577 556.3799987080673)" id="tagline-5b150119-d99b-4ec0-b357-5120a857eb34-logo-17"  >
<g style=""  paint-order="stroke"   >
		<g transform="matrix(0.9999999999999999 0 0 1 0 0)" id="tagline-5b150119-d99b-4ec0-b357-5120a857eb34-logo-17-path-0"  >
<linearGradient id="SVGID_195497" gradientUnits="userSpaceOnUse" gradientTransform="matrix(1 0 0 1 3.5199999999999996 -31.24)"  x1="0" y1="0" x2="0" y2="50">
<stop offset="0%" style="stop-color:rgb(91,36,122);stop-opacity: 1"/>
<stop offset="100%" style="stop-color:rgb(27,206,223);stop-opacity: 1"/>
</linearGradient>
<path style="stroke: rgb(20,72,132); stroke-width: 2; stroke-dasharray: none; stroke-linecap: butt; stroke-dashoffset: 0; stroke-linejoin: miter; stroke-miterlimit: 4; fill: url(#SVGID_195497); fill-rule: nonzero; opacity: 1;"  paint-order="stroke"  transform=" translate(-11, 15.399999999999999)" d="M 11 0.44 C 15.14 0.44 18.48 -0.7 18.48 -6.6 L 18.48 -7.48 C 18.48 -14.56 6.6 -19.1 6.6 -23.32 C 6.6 -27.32 8.32 -28.16 11 -28.16 C 13.68 -28.16 15.4 -27.32 15.4 -23.32 L 15.4 -21.56 L 18.48 -21.56 L 18.48 -24.2 C 18.48 -30.1 15.18 -31.24 11 -31.24 C 6.86 -31.24 3.52 -30.1 3.52 -24.2 L 3.52 -23.32 C 3.52 -16.98 15.4 -12.45 15.4 -7.48 C 15.4 -3.48 13.68 -2.64 11 -2.64 C 8.32 -2.64 6.6 -3.48 6.6 -7.48 L 6.6 -9.77 L 3.52 -9.77 L 3.52 -6.6 C 3.52 -0.79 6.82 0.44 11 0.44 Z" stroke-linecap="round" />
</g>
</g>
</g>
</svg>